<svg version="1.2" xmlns="http://www.w3.org/2000/svg" viewBox="0 0 1280 720" width="1280" height="720">
	<style>
		.s0 { fill: #150000 } 
		.s1 { fill: none;stroke: #000000;stroke-linecap: round;stroke-linejoin: round;stroke-width: 50 } 
	</style>
	<path id="DIGITAL" class="s0" aria-label="DIGITAL"  d="m167.8 304.3h-16.9v111.2h16.9q28.8 0 43.9-14.3 15.3-14.3 15.3-41.5 0-27.1-15.1-41.3-15.2-14.1-44.1-14.1zm-63.9 146.7v-182.3h49.6q41.5 0 61.8 6 20.4 5.9 34.9 20.1 12.8 12.3 19 28.4 6.3 16.1 6.3 36.5 0 20.6-6.3 36.9-6.2 16.1-19 28.4-14.7 14.2-35.2 20.1-20.5 5.9-61.5 5.9zm208 0v-182.3h47v182.3zm256.8-101.2v87.7q-17.6 8.5-36.5 12.8-18.9 4.2-39 4.2-45.6 0-72.2-25.4-26.6-25.5-26.6-69 0-44.1 27.1-69.4 27.1-25.2 74.2-25.2 18.2 0 34.8 3.4 16.7 3.4 31.5 10.1v37.7q-15.2-8.6-30.4-12.9-15-4.3-30.1-4.3-28.1 0-43.4 15.8-15.1 15.6-15.1 44.8 0 28.9 14.6 44.6 14.7 15.8 41.7 15.8 7.3 0 13.5-0.9 6.4-0.9 11.4-2.9v-35.4h-28.7v-31.5zm41.2 101.2v-182.3h47v182.3zm71.2-146.7v-35.6h168v35.6h-60.4v146.7h-47v-146.7zm294.8 146.7l-11.5-33.2h-73.5l-11.6 33.2h-47.2l67.5-182.3h56l67.5 182.3zm-48.2-139.5l-25 72.5h49.9zm119.2 139.5v-182.2h46.9v146.7h82.6v35.5z"/>
	<path id="Shape 1" fill-rule="evenodd" class="s1" d="m1224 211v302h-1168v-302z"/>
</svg>