<svg version="1.2" xmlns="http://www.w3.org/2000/svg" viewBox="0 0 1444 720" width="1444" height="720">
	<style>
		.s0 { fill: #ff0000 } 
		.s1 { fill: none;stroke: #ff0000;stroke-linecap: round;stroke-linejoin: round;stroke-width: 50 } 
	</style>
	<path id="MISSING" class="s0" aria-label="MISSING"  d="m143.9 449v-182.3h59.9l41.5 97.6 41.7-97.6h59.7v182.3h-44.4v-133.3l-42 98.3h-29.8l-42-98.3v133.3zm249 0v-182.3h47v182.3zm219.8-176.5v38.6q-15-6.8-29.3-10.2-14.2-3.4-26.9-3.4-16.9 0-24.9 4.6-8.1 4.7-8.1 14.5 0 7.3 5.4 11.4 5.5 4.1 19.7 7l20.1 4q30.4 6.1 43.2 18.6 12.8 12.4 12.8 35.4 0 30.1-17.9 44.9-17.9 14.6-54.6 14.6-17.3 0-34.8-3.3-17.5-3.3-34.9-9.7v-39.7q17.4 9.3 33.7 14 16.3 4.7 31.5 4.7 15.4 0 23.5-5.1 8.2-5.2 8.2-14.7 0-8.5-5.6-13.2-5.5-4.6-22.1-8.3l-18.2-4q-27.3-5.9-40-18.7-12.6-12.8-12.6-34.5 0-27.3 17.6-41.9 17.6-14.6 50.5-14.6 15 0 30.9 2.3 15.9 2.2 32.8 6.7zm169 0v38.6q-15-6.8-29.3-10.2-14.2-3.4-26.9-3.4-16.9 0-24.9 4.6-8.1 4.7-8.1 14.5 0 7.3 5.4 11.4 5.5 4.1 19.7 7l20.1 4q30.4 6.1 43.2 18.6 12.8 12.4 12.8 35.4 0 30.1-17.9 44.9-17.9 14.6-54.6 14.6-17.3 0-34.8-3.3-17.5-3.3-34.9-9.7v-39.7q17.4 9.3 33.7 14 16.3 4.7 31.5 4.7 15.4 0 23.5-5.1 8.2-5.2 8.2-14.7 0-8.5-5.6-13.2-5.5-4.6-22.1-8.3l-18.2-4q-27.3-5.9-40-18.7-12.6-12.8-12.6-34.5 0-27.3 17.6-41.9 17.6-14.6 50.5-14.6 15 0 30.9 2.3 15.9 2.2 32.8 6.7zm53.2 176.5v-182.3h47v182.3zm93 0v-182.3h52.5l66.3 125v-125h44.5v182.3h-52.5l-66.2-125v125zm372.8-101.2v87.7q-17.6 8.5-36.5 12.8-18.9 4.2-39.1 4.2-45.5 0-72.1-25.4-26.6-25.5-26.6-69 0-44.1 27.1-69.4 27.1-25.2 74.2-25.2 18.2 0 34.8 3.4 16.7 3.4 31.5 10.1v37.7q-15.3-8.6-30.4-12.9-15.1-4.3-30.2-4.3-28.1 0-43.3 15.8-15.2 15.6-15.2 44.8 0 28.9 14.7 44.6 14.6 15.8 41.6 15.8 7.3 0 13.6-0.9 6.3-0.9 11.3-2.9v-35.4h-28.7v-31.5z"/>
	<path id="Shape 1" fill-rule="evenodd" class="s1" d="m1347 209v302h-1251v-302z"/>
</svg>